<svg width="16" height="16" viewBox="0 0 16 16" fill="none" xmlns="http://www.w3.org/2000/svg">
<path d="M6.5 15.5C6.36458 15.5 6.23438 15.474 6.10938 15.4219C5.98438 15.3698 5.88021 15.2969 5.79688 15.2031L1.29688 10.7031C1.20312 10.6198 1.13281 10.5182 1.08594 10.3984C1.03906 10.2786 1.01562 10.151 1.01562 10.0156C1.01562 9.73438 1.11198 9.4974 1.30469 9.30469C1.4974 9.11198 1.73438 9.01562 2.01562 9.01562C2.15104 9.01562 2.27865 9.03906 2.39844 9.08594C2.51823 9.13281 2.61979 9.20312 2.70312 9.29688L6.4375 13.0156L13.2344 4.85938C13.3281 4.74479 13.4427 4.65365 13.5781 4.58594C13.7135 4.51823 13.8594 4.48438 14.0156 4.48438C14.2969 4.48438 14.5339 4.58073 14.7266 4.77344C14.9193 4.96615 15.0156 5.20312 15.0156 5.48438C15.0156 5.60938 14.9948 5.72917 14.9531 5.84375C14.9115 5.95833 14.849 6.05729 14.7656 6.14062L7.26562 15.1406C7.18229 15.2448 7.07812 15.3281 6.95312 15.3906C6.82812 15.4531 6.69271 15.4896 6.54688 15.5H6.5Z" fill="#008849"/>
</svg>
